# Blender v2.79 (sub 0) OBJ File: 'shadow_test.blend'
# www.blender.org
mtllib shadow_test.mtl
o Cube.003
v -0.352691 0.823336 0.212950
v -0.148356 1.108936 -0.157350
v -0.463703 0.460405 -0.128225
v -0.259368 0.746005 -0.498525
v 0.101584 0.606181 0.296139
v 0.305920 0.891782 -0.074161
v -0.009428 0.243250 -0.045035
v 0.194908 0.528850 -0.415336
vn -0.8901 0.4255 -0.1630
vn -0.2175 -0.7112 -0.6685
vn 0.8901 -0.4255 0.1630
vn 0.2175 0.7112 0.6685
vn -0.4004 -0.5596 0.7256
vn 0.4004 0.5596 -0.7256
usemtl Material
s off
f 1//1 2//1 4//1 3//1
f 3//2 4//2 8//2 7//2
f 7//3 8//3 6//3 5//3
f 5//4 6//4 2//4 1//4
f 3//5 7//5 5//5 1//5
f 8//6 4//6 2//6 6//6
o Cube.002
v 10.841588 -0.075601 -10.830573
v 10.841588 -0.075601 10.774441
v -10.763428 -0.075601 10.774438
v -10.763422 -0.075601 -10.830578
v 10.841594 0.127938 -10.830567
v 10.841581 0.127938 10.774448
v -10.763431 0.127938 10.774437
v -10.763426 0.127938 -10.830573
vn 0.0000 -1.0000 0.0000
vn 0.0000 1.0000 0.0000
vn 1.0000 0.0000 0.0000
vn -0.0000 -0.0000 1.0000
vn -1.0000 -0.0000 -0.0000
vn 0.0000 0.0000 -1.0000
usemtl Material
s off
f 9//7 10//7 11//7 12//7
f 13//8 16//8 15//8 14//8
f 9//9 13//9 14//9 10//9
f 10//10 14//10 15//10 11//10
f 11//11 15//11 16//11 12//11
f 13//12 9//12 12//12 16//12
o Cube.001
v 0.824148 2.264206 4.059534
v 0.824148 -0.554803 4.059534
v -1.994861 -0.554803 4.059534
v -1.994860 2.264206 4.059534
v 0.824149 2.264205 4.263072
v 0.824147 -0.554804 4.263072
v -1.994861 -0.554803 4.263072
v -1.994861 2.264206 4.263072
vn -0.0000 0.0000 -1.0000
vn -0.0000 0.0000 1.0000
vn 1.0000 -0.0000 0.0000
vn -0.0000 -1.0000 -0.0000
vn -1.0000 0.0000 -0.0000
vn 0.0000 1.0000 0.0000
usemtl Material
s off
f 17//13 18//13 19//13 20//13
f 21//14 24//14 23//14 22//14
f 17//15 21//15 22//15 18//15
f 18//16 22//16 23//16 19//16
f 19//17 23//17 24//17 20//17
f 21//18 17//18 20//18 24//18
o Cube
v -1.153179 2.867419 -5.465484
v -1.084996 0.055554 -5.654102
v -3.331253 -0.112611 -3.959151
v -3.399436 2.699255 -3.770533
v -1.030297 2.859527 -5.303418
v -0.962115 0.047661 -5.492035
v -3.208372 -0.120502 -3.797084
v -3.276555 2.691362 -3.608465
vn -0.6037 0.0388 -0.7962
vn 0.6037 -0.0388 0.7962
vn 0.7968 0.0597 -0.6013
vn 0.0242 -0.9975 -0.0669
vn -0.7968 -0.0597 0.6013
vn -0.0242 0.9975 0.0669
usemtl Material
s off
f 25//19 26//19 27//19 28//19
f 29//20 32//20 31//20 30//20
f 25//21 29//21 30//21 26//21
f 26//22 30//22 31//22 27//22
f 27//23 31//23 32//23 28//23
f 29//24 25//24 28//24 32//24
